<mxfile host="app.diagrams.net" modified="2024-04-20T19:15:46.684Z" agent="Mozilla/5.0 (Macintosh; Intel Mac OS X 10_15_7) AppleWebKit/537.36 (KHTML, like Gecko) Chrome/123.0.0.0 Safari/537.36" etag="GygfHHUD_BWkHqI7_U2M" version="24.2.5" type="device">
  <diagram name="Page-1" id="wfryAJbuf76UPfL1F3hI">
    <mxGraphModel dx="1103" dy="612" grid="1" gridSize="10" guides="1" tooltips="1" connect="1" arrows="1" fold="1" page="1" pageScale="1" pageWidth="850" pageHeight="1100" math="0" shadow="0">
      <root>
        <mxCell id="0" />
        <mxCell id="1" parent="0" />
        <mxCell id="V1byM4zoAE39RPeBH1bS-10" value="your&amp;nbsp;&lt;div&gt;secondary&lt;div&gt;branch&lt;/div&gt;&lt;/div&gt;" style="rounded=0;whiteSpace=wrap;html=1;fillColor=none;dashed=1;labelPosition=left;verticalLabelPosition=middle;align=right;verticalAlign=middle;spacingRight=7;" vertex="1" parent="1">
          <mxGeometry x="120" y="340" width="700" height="160" as="geometry" />
        </mxCell>
        <mxCell id="V1byM4zoAE39RPeBH1bS-4" value="" style="edgeStyle=orthogonalEdgeStyle;rounded=0;orthogonalLoop=1;jettySize=auto;html=1;" edge="1" parent="1" source="V1byM4zoAE39RPeBH1bS-1" target="V1byM4zoAE39RPeBH1bS-2">
          <mxGeometry relative="1" as="geometry" />
        </mxCell>
        <mxCell id="V1byM4zoAE39RPeBH1bS-1" value="essay.doc" style="shape=note;whiteSpace=wrap;html=1;backgroundOutline=1;darkOpacity=0.05;labelPosition=center;verticalLabelPosition=bottom;align=center;verticalAlign=top;" vertex="1" parent="1">
          <mxGeometry x="140" y="180" width="80" height="100" as="geometry" />
        </mxCell>
        <mxCell id="V1byM4zoAE39RPeBH1bS-6" value="" style="edgeStyle=orthogonalEdgeStyle;rounded=0;orthogonalLoop=1;jettySize=auto;html=1;" edge="1" parent="1" source="V1byM4zoAE39RPeBH1bS-2" target="V1byM4zoAE39RPeBH1bS-5">
          <mxGeometry relative="1" as="geometry" />
        </mxCell>
        <mxCell id="V1byM4zoAE39RPeBH1bS-2" value="essay-v2&lt;span style=&quot;background-color: initial;&quot;&gt;.doc&lt;/span&gt;" style="shape=note;whiteSpace=wrap;html=1;backgroundOutline=1;darkOpacity=0.05;labelPosition=center;verticalLabelPosition=bottom;align=center;verticalAlign=top;" vertex="1" parent="1">
          <mxGeometry x="270" y="180" width="80" height="100" as="geometry" />
        </mxCell>
        <mxCell id="V1byM4zoAE39RPeBH1bS-5" value="essay-backup&lt;span style=&quot;background-color: initial;&quot;&gt;.doc&lt;/span&gt;" style="shape=note;html=1;backgroundOutline=1;darkOpacity=0.05;labelPosition=center;verticalLabelPosition=bottom;align=center;verticalAlign=top;" vertex="1" parent="1">
          <mxGeometry x="400" y="180" width="80" height="100" as="geometry" />
        </mxCell>
        <mxCell id="V1byM4zoAE39RPeBH1bS-7" value="essay-v3&lt;span style=&quot;background-color: initial;&quot;&gt;.doc&lt;/span&gt;" style="shape=note;whiteSpace=wrap;html=1;backgroundOutline=1;darkOpacity=0.05;labelPosition=center;verticalLabelPosition=bottom;align=center;verticalAlign=top;" vertex="1" parent="1">
          <mxGeometry x="400" y="370" width="80" height="100" as="geometry" />
        </mxCell>
        <mxCell id="V1byM4zoAE39RPeBH1bS-8" style="edgeStyle=orthogonalEdgeStyle;rounded=0;orthogonalLoop=1;jettySize=auto;html=1;exitX=0;exitY=0;exitDx=80;exitDy=65;exitPerimeter=0;entryX=0;entryY=0.5;entryDx=0;entryDy=0;entryPerimeter=0;" edge="1" parent="1" source="V1byM4zoAE39RPeBH1bS-2" target="V1byM4zoAE39RPeBH1bS-7">
          <mxGeometry relative="1" as="geometry" />
        </mxCell>
        <mxCell id="V1byM4zoAE39RPeBH1bS-22" value="branch" style="edgeLabel;html=1;align=center;verticalAlign=middle;resizable=0;points=[];" vertex="1" connectable="0" parent="V1byM4zoAE39RPeBH1bS-8">
          <mxGeometry x="0.1173" relative="1" as="geometry">
            <mxPoint y="-15" as="offset" />
          </mxGeometry>
        </mxCell>
        <mxCell id="V1byM4zoAE39RPeBH1bS-9" value="your&amp;nbsp;&lt;div&gt;original&lt;div&gt;branch&lt;/div&gt;&lt;/div&gt;" style="rounded=0;whiteSpace=wrap;html=1;fillColor=none;dashed=1;labelPosition=left;verticalLabelPosition=middle;align=right;verticalAlign=middle;spacingRight=8;" vertex="1" parent="1">
          <mxGeometry x="120" y="160" width="700" height="160" as="geometry" />
        </mxCell>
        <mxCell id="V1byM4zoAE39RPeBH1bS-13" value="anna&#39;s&lt;div&gt;branch&lt;/div&gt;" style="rounded=0;whiteSpace=wrap;html=1;fillColor=none;dashed=1;labelPosition=left;verticalLabelPosition=middle;align=right;verticalAlign=middle;spacingRight=7;" vertex="1" parent="1">
          <mxGeometry x="120" y="520" width="700" height="160" as="geometry" />
        </mxCell>
        <mxCell id="V1byM4zoAE39RPeBH1bS-14" value="essay-v3&lt;span style=&quot;background-color: initial;&quot;&gt;.doc&lt;/span&gt;" style="shape=note;whiteSpace=wrap;html=1;backgroundOutline=1;darkOpacity=0.05;labelPosition=center;verticalLabelPosition=bottom;align=center;verticalAlign=top;" vertex="1" parent="1">
          <mxGeometry x="550" y="550" width="80" height="100" as="geometry" />
        </mxCell>
        <mxCell id="V1byM4zoAE39RPeBH1bS-16" style="edgeStyle=orthogonalEdgeStyle;rounded=0;orthogonalLoop=1;jettySize=auto;html=1;exitX=0.991;exitY=0.488;exitDx=0;exitDy=0;exitPerimeter=0;entryX=0;entryY=0.5;entryDx=0;entryDy=0;entryPerimeter=0;" edge="1" parent="1" source="V1byM4zoAE39RPeBH1bS-7" target="V1byM4zoAE39RPeBH1bS-14">
          <mxGeometry relative="1" as="geometry">
            <mxPoint x="400" y="420" as="sourcePoint" />
            <mxPoint x="400" y="600" as="targetPoint" />
            <Array as="points">
              <mxPoint x="479" y="420" />
              <mxPoint x="510" y="420" />
              <mxPoint x="510" y="600" />
            </Array>
          </mxGeometry>
        </mxCell>
        <mxCell id="V1byM4zoAE39RPeBH1bS-23" value="branch" style="edgeLabel;html=1;align=center;verticalAlign=middle;resizable=0;points=[];" vertex="1" connectable="0" parent="V1byM4zoAE39RPeBH1bS-16">
          <mxGeometry x="-0.2047" relative="1" as="geometry">
            <mxPoint y="22" as="offset" />
          </mxGeometry>
        </mxCell>
        <mxCell id="V1byM4zoAE39RPeBH1bS-18" value="essay-v4-anna-edit.doc" style="shape=note;html=1;backgroundOutline=1;darkOpacity=0.05;labelPosition=center;verticalLabelPosition=bottom;align=center;verticalAlign=top;" vertex="1" parent="1">
          <mxGeometry x="700" y="370" width="80" height="100" as="geometry" />
        </mxCell>
        <mxCell id="V1byM4zoAE39RPeBH1bS-20" style="edgeStyle=orthogonalEdgeStyle;rounded=0;orthogonalLoop=1;jettySize=auto;html=1;exitX=0;exitY=0;exitDx=80;exitDy=65;exitPerimeter=0;entryX=0;entryY=0.5;entryDx=0;entryDy=0;entryPerimeter=0;" edge="1" parent="1" source="V1byM4zoAE39RPeBH1bS-14" target="V1byM4zoAE39RPeBH1bS-18">
          <mxGeometry relative="1" as="geometry">
            <Array as="points">
              <mxPoint x="630" y="600" />
              <mxPoint x="665" y="600" />
              <mxPoint x="665" y="420" />
            </Array>
          </mxGeometry>
        </mxCell>
        <mxCell id="V1byM4zoAE39RPeBH1bS-21" value="merge" style="edgeLabel;html=1;align=center;verticalAlign=middle;resizable=0;points=[];" vertex="1" connectable="0" parent="V1byM4zoAE39RPeBH1bS-20">
          <mxGeometry x="0.065" relative="1" as="geometry">
            <mxPoint as="offset" />
          </mxGeometry>
        </mxCell>
      </root>
    </mxGraphModel>
  </diagram>
</mxfile>
